<svg width="36" height="36" viewBox="0 0 36 36" fill="none" xmlns="http://www.w3.org/2000/svg">
<path d="M11.3619 0.987C8.69861 0.989647 6.14516 2.04881 4.26193 3.93204C2.3787 5.81527 1.31954 8.36871 1.31689 11.032V24.942C1.31954 27.6053 2.3787 30.1587 4.26193 32.042C6.14516 33.9252 8.69861 34.9844 11.3619 34.987H25.2719C27.9352 34.9844 30.4886 33.9252 32.3719 32.042C34.2551 30.1587 35.3142 27.6053 35.3169 24.942V11.032C35.3142 8.36871 34.2551 5.81527 32.3719 3.93204C30.4886 2.04881 27.9352 0.989647 25.2719 0.987H11.3619ZM11.3619 2.532H25.2719C26.3887 2.53002 27.4949 2.74853 28.527 3.175C29.5592 3.60146 30.497 4.22749 31.2867 5.01719C32.0764 5.80688 32.7024 6.7447 33.1289 7.77686C33.5554 8.80902 33.7739 9.91521 33.7719 11.032V24.942C33.7739 26.0588 33.5554 27.165 33.1289 28.1971C32.7024 29.2293 32.0764 30.1671 31.2867 30.9568C30.497 31.7465 29.5592 32.3725 28.527 32.799C27.4949 33.2255 26.3887 33.444 25.2719 33.442H11.3619C10.2451 33.444 9.13891 33.2255 8.10675 32.799C7.07459 32.3725 6.13677 31.7465 5.34708 30.9568C4.55739 30.1671 3.93136 29.2293 3.50489 28.1971C3.07843 27.165 2.85992 26.0588 2.86189 24.942V11.032C2.85992 9.91521 3.07843 8.80902 3.50489 7.77686C3.93136 6.7447 4.55739 5.80688 5.34708 5.01719C6.13677 4.22749 7.07459 3.60146 8.10675 3.175C9.13891 2.74853 10.2451 2.53002 11.3619 2.532ZM27.5889 7.168C27.2833 7.168 26.9846 7.25861 26.7305 7.42838C26.4765 7.59815 26.2784 7.83944 26.1615 8.12175C26.0446 8.40407 26.014 8.71472 26.0736 9.01442C26.1332 9.31412 26.2803 9.58941 26.4964 9.80548C26.7125 10.0216 26.9878 10.1687 27.2875 10.2283C27.5872 10.2879 27.8978 10.2573 28.1801 10.1404C28.4625 10.0235 28.7037 9.82543 28.8735 9.57135C29.0433 9.31728 29.1339 9.01857 29.1339 8.713C29.1323 8.30399 28.9691 7.91218 28.6799 7.62297C28.3907 7.33376 27.9989 7.17058 27.5899 7.169L27.5889 7.168ZM18.3169 9.487C16.6358 9.487 14.9924 9.98551 13.5945 10.9195C12.1967 11.8535 11.1073 13.181 10.4639 14.7342C9.82057 16.2874 9.65225 17.9964 9.98022 19.6453C10.3082 21.2941 11.1177 22.8087 12.3065 23.9974C13.4952 25.1862 15.0098 25.9957 16.6586 26.3237C18.3075 26.6516 20.0165 26.4833 21.5697 25.84C23.1229 25.1966 24.4504 24.1072 25.3844 22.7093C26.3184 21.3115 26.8169 19.6681 26.8169 17.987C26.8129 15.7339 25.9161 13.5742 24.3229 11.981C22.7297 10.3878 20.57 9.49096 18.3169 9.487ZM18.3169 11.032C19.6925 11.032 21.0371 11.4399 22.1809 12.2041C23.3246 12.9684 24.2161 14.0546 24.7425 15.3254C25.2689 16.5963 25.4066 17.9947 25.1383 19.3439C24.8699 20.693 24.2075 21.9323 23.2348 22.9049C22.2621 23.8776 21.0229 24.54 19.6737 24.8084C18.3246 25.0767 16.9262 24.939 15.6553 24.4126C14.3845 23.8862 13.2982 22.9947 12.534 21.851C11.7698 20.7072 11.3619 19.3626 11.3619 17.987C11.3606 17.0733 11.5396 16.1683 11.8886 15.3239C12.2377 14.4795 12.7499 13.7122 13.396 13.0661C14.0421 12.42 14.8094 11.9078 15.6538 11.5587C16.4982 11.2097 17.4032 11.0307 18.3169 11.032Z" fill="#FFF" stroke="#FFF"/>
</svg>
