<svg width="36" height="36" viewBox="0 0 36 28" fill="none" xmlns="http://www.w3.org/2000/svg">
<path d="M18.3181 1.40503C14.0781 1.34063 9.84077 1.65656 5.65714 2.34903C4.79684 2.49459 3.99988 2.89458 3.36908 3.4974C2.73828 4.10022 2.30256 4.87821 2.11814 5.73103C1.68509 8.46177 1.47473 11.2232 1.48914 13.988C1.45739 16.7568 1.6945 19.5221 2.19714 22.245C2.39432 23.0918 2.83411 23.8627 3.46267 24.4634C4.09124 25.0641 4.8813 25.4685 5.73614 25.627C9.92061 26.3125 14.1573 26.6284 18.3971 26.571C22.637 26.6284 26.8737 26.3125 31.0581 25.627C31.9184 25.4815 32.7154 25.0815 33.3462 24.4787C33.977 23.8758 34.4127 23.0978 34.5971 22.245C35.053 19.4881 35.3156 16.7026 35.3831 13.909C35.3953 11.1113 35.132 8.31918 34.5971 5.57303C34.4 4.72626 33.9602 3.95535 33.3316 3.35467C32.703 2.75399 31.913 2.34962 31.0581 2.19104C26.833 1.65297 22.5774 1.39041 18.3181 1.40503ZM18.3181 2.97803C22.4762 2.9364 26.631 3.22565 30.7431 3.84304C31.2868 3.94117 31.7908 4.19344 32.1952 4.56981C32.5996 4.94619 32.8873 5.43081 33.0241 5.96603C33.5309 8.58374 33.794 11.2428 33.8101 13.909C33.7364 16.624 33.4738 19.3305 33.0241 22.009C32.7881 23.503 31.2151 23.975 30.7431 24.132C26.6883 24.7963 22.5839 25.1121 18.4751 25.076C14.365 25.1553 10.2568 24.8392 6.20714 24.132C5.66349 24.0339 5.15949 23.7816 4.7551 23.4053C4.35072 23.0289 4.06298 22.5442 3.92614 22.009C3.2891 19.3842 2.9983 16.6873 3.06114 13.987C3.02841 11.3261 3.23862 8.66775 3.68914 6.04503C3.92514 4.55103 5.57614 4.07903 5.97014 3.92203C10.0495 3.2374 14.1821 2.92146 18.3181 2.97803ZM14.0711 7.69703V20.28L25.0811 13.989L14.0711 7.69703ZM15.6441 10.371L21.9351 13.989L15.6451 17.605L15.6441 10.371Z" fill="#FF974F" stroke="#FF974F"/>
</svg>
