<svg width="37" height="28" viewBox="0 0 37 28" fill="none" xmlns="http://www.w3.org/2000/svg">
<path d="M4.41603 0.861023C3.54907 0.863892 2.71821 1.20854 2.10377 1.82018C1.48932 2.43181 1.14087 3.26108 1.13403 4.12802V23.828C1.13876 24.697 1.48606 25.5291 2.10053 26.1435C2.715 26.758 3.54705 27.1053 4.41603 27.11H32.856C33.7236 27.1043 34.5541 26.757 35.1676 26.1435C35.7811 25.53 36.1283 24.6996 36.134 23.832V4.13203C36.1283 3.26508 35.7808 2.43538 35.1671 1.823C34.5534 1.21062 33.723 0.864953 32.856 0.861023H4.41603ZM6.31603 2.31902H30.96L18.634 10.91L6.31603 2.31902ZM3.88803 2.40702L18.634 12.689L33.389 2.40702C33.7608 2.51896 34.0869 2.74725 34.3193 3.0583C34.5517 3.36935 34.6781 3.74676 34.68 4.13503C34.6234 4.40342 34.4892 4.64926 34.294 4.84203C34.1534 4.99138 33.9998 5.12791 33.835 5.25002V5.26102L18.634 16.015L3.43403 5.26102V5.25102C3.26709 5.13157 3.11323 4.99481 2.97503 4.84303C2.77952 4.65039 2.64494 4.40453 2.58803 4.13602C2.59 3.74707 2.71693 3.36905 2.9501 3.05774C3.18328 2.74642 3.51034 2.5183 3.88303 2.40702H3.88803ZM2.59703 6.44003L2.61203 6.44702L4.78503 7.99303V25.655H4.42003C4.18034 25.6561 3.94281 25.6096 3.72115 25.5184C3.4995 25.4272 3.29811 25.2929 3.12862 25.1234C2.95912 24.9539 2.82488 24.7526 2.73364 24.5309C2.64241 24.3093 2.59597 24.0717 2.59703 23.832V6.44003ZM34.684 6.44003V23.832C34.6851 24.0717 34.6387 24.3093 34.5474 24.5309C34.4562 24.7526 34.3219 24.9539 34.1525 25.1234C33.983 25.2929 33.7816 25.4272 33.5599 25.5184C33.3383 25.6096 33.1007 25.6561 32.861 25.655H32.496V7.99303L34.669 6.45403L34.684 6.44003ZM6.23403 9.02103L18.634 17.794L31.034 9.02103V25.655H6.23403V9.02103Z" fill="#FF974F" stroke="#FF974F" stroke-width="0.5"/>
</svg>
