<svg width="261" height="70" viewBox="0 0 261 70" fill="none" xmlns="http://www.w3.org/2000/svg">
<path fill-rule="evenodd" clip-rule="evenodd" d="M47.844 15.027L47.92 15.179C49.1778 16.4151 50.3214 17.7623 51.337 19.204C54.2076 23.3228 55.8653 28.1642 56.122 33.178L56.198 35.001C56.2602 38.6975 55.5564 42.3669 54.1311 45.7782C52.7057 49.1894 50.5896 52.2686 47.916 54.822C45.3775 57.472 42.3229 59.5736 38.9407 60.9974C35.5585 62.4211 31.9204 63.1367 28.251 63.1L33.035 67.884C33.1162 67.9617 33.1789 68.0567 33.2184 68.162C33.2579 68.2672 33.2731 68.3801 33.263 68.492C33.2658 68.5919 33.2469 68.6912 33.2076 68.7831C33.1682 68.875 33.1093 68.9572 33.035 69.024C32.8694 69.1094 32.6886 69.161 32.503 69.176C32.2783 69.1822 32.0602 69.1004 31.895 68.948L25.816 62.872C25.7017 62.7694 25.6247 62.6316 25.5972 62.4805C25.5697 62.3294 25.5932 62.1734 25.664 62.037V61.961L25.816 61.733L31.892 55.733C32.0572 55.5807 32.2753 55.4989 32.5 55.505C32.5999 55.5022 32.6992 55.5211 32.7911 55.5604C32.8829 55.5998 32.9651 55.6587 33.032 55.733C33.1063 55.7998 33.1652 55.882 33.2046 55.9739C33.2439 56.0658 33.2628 56.1651 33.26 56.265C33.2628 56.3649 33.2439 56.4642 33.2046 56.5561C33.1652 56.648 33.1063 56.7302 33.032 56.797L28.172 61.581C31.6548 61.6205 35.1089 60.947 38.3218 59.6018C41.5346 58.2566 44.4382 56.2682 46.854 53.759C49.371 51.3329 51.364 48.4166 52.7098 45.1901C54.0557 41.9637 54.7259 38.4956 54.679 35V34.62C53.8762 35.1786 53.0393 35.6862 52.173 36.14C51.9948 36.2699 51.7846 36.3487 51.565 36.368C50.502 36.368 49.439 35.457 48.375 33.71C48.0606 33.1151 47.6501 32.5761 47.16 32.115C46.9942 32.0377 46.8406 31.9367 46.704 31.815C46.4288 31.8914 46.171 32.0205 45.945 32.195C45.7917 32.2656 45.6569 32.371 45.5514 32.5027C45.4458 32.6345 45.3724 32.789 45.337 32.954C45.337 33.41 45.637 33.865 46.324 34.245C46.8513 34.4658 47.3037 34.834 47.6271 35.3054C47.9504 35.7769 48.1309 36.3316 48.147 36.903C48.147 37.359 46.78 39.637 44.122 43.814C44.122 43.89 43.97 43.966 43.822 44.114C42.531 44.797 41.544 44.949 40.936 44.494C40.328 44.039 40.098 43.278 40.326 42.063L40.706 40.163C40.706 38.2643 39.567 37.0493 37.289 36.518C35.541 36.064 34.554 35.84 34.478 35.76C34.0034 35.6006 33.5924 35.2933 33.3053 34.8831C33.0182 34.4729 32.8702 33.9815 32.883 33.481C32.883 30.7477 34.4776 29.153 37.667 28.697L38.73 28.621C39.0263 28.2346 39.3857 27.901 39.793 27.634L40.476 27.026C39.9894 27.0972 39.5076 27.1973 39.033 27.326C37.2103 27.7813 35.9953 27.8573 35.388 27.554C35.01 27.33 34.782 26.874 34.782 26.04C34.7467 25.4892 34.9241 24.9459 35.2777 24.5221C35.6312 24.0982 36.1338 23.8262 36.682 23.762C37.4577 23.5668 38.2435 23.4146 39.036 23.306C39.6481 23.0808 40.2143 22.7464 40.707 22.319C41.2371 21.8082 41.7942 21.3261 42.376 20.875C43.1262 20.4721 43.9557 20.239 44.806 20.192C45.0019 20.1175 45.1678 19.9804 45.2777 19.8019C45.3877 19.6234 45.4356 19.4135 45.414 19.205C45.4634 17.9888 45.7741 16.7975 46.325 15.712L46.401 15.636C44.8359 14.1489 43.1029 12.8491 41.237 11.763C41.055 11.6672 40.9184 11.5033 40.857 11.307C40.8065 11.1019 40.8336 10.8854 40.933 10.699C41.0288 10.5171 41.1927 10.3804 41.389 10.319C41.5941 10.2686 41.8106 10.2956 41.997 10.395C44.1208 11.7052 46.0836 13.2602 47.845 15.028L47.844 15.027ZM30.453 7.96401V8.04001C30.377 8.11601 30.377 8.19201 30.301 8.26801V8.34401L24.225 14.344C24.1581 14.4183 24.0759 14.4772 23.9841 14.5166C23.8922 14.556 23.7929 14.5749 23.693 14.572C23.4683 14.5782 23.2502 14.4964 23.085 14.344C23.0107 14.2772 22.9518 14.195 22.9124 14.1031C22.873 14.0113 22.8541 13.9119 22.857 13.812C22.8508 13.5874 22.9326 13.3692 23.085 13.204L27.869 8.49501C25.1693 8.47909 22.4822 8.86292 19.895 9.63401C20.0924 10.0085 20.1954 10.4256 20.195 10.849C20.1323 11.8093 19.8783 12.7473 19.448 13.608C19.0176 14.4687 18.4196 15.2347 17.689 15.861C16.8662 16.5124 16.1711 17.3105 15.639 18.215C16.086 18.5898 16.602 18.8735 17.158 19.05C18.829 19.733 19.664 20.645 19.664 21.86C19.6956 22.522 19.5504 23.1804 19.2434 23.7678C18.9363 24.3551 18.4786 24.8501 17.917 25.202C16.939 25.7124 15.8889 26.0709 14.803 26.265C13.9031 26.4432 13.0335 26.75 12.221 27.176C11.938 27.434 11.7161 27.7519 11.5717 28.1066C11.4272 28.4613 11.3638 28.8437 11.386 29.226L12.069 32.036C12.4283 33.3297 12.6822 34.6503 12.828 35.985C12.828 36.365 13.208 36.517 14.043 36.593H17.081C17.7581 36.576 18.4271 36.7439 19.0159 37.0787C19.6048 37.4135 20.0912 37.9025 20.423 38.493C20.955 39.252 21.942 39.632 23.537 39.632C24.4094 39.6921 25.2518 39.9752 25.9835 40.4541C26.7152 40.9329 27.3117 41.5916 27.716 42.367C27.99 42.7164 28.1804 43.124 28.2726 43.5583C28.3648 43.9927 28.3564 44.4424 28.248 44.873C28.018 45.3038 27.694 45.6773 27.3 45.9659C26.906 46.2545 26.4521 46.4507 25.972 46.54C24.377 46.92 22.555 50.34 20.504 56.64C20.4585 56.8028 20.358 56.9447 20.2196 57.0417C20.0812 57.1387 19.9135 57.1847 19.745 57.172C17.695 57.172 16.479 55.729 16.176 52.919C15.948 51.4 15.72 50.185 15.568 49.35C15.4754 49.0251 15.3993 48.6956 15.34 48.363C14.1419 47.6615 12.8668 47.1007 11.54 46.692C9.33998 45.933 8.19798 44.792 8.19798 43.199C8.34489 42.2761 8.62762 41.3801 9.03698 40.54L9.87198 38.565C9.87198 36.135 9.18898 34.765 7.89698 34.388C7.24021 34.3087 6.59946 34.1292 5.99698 33.856C5.58888 33.6845 5.24868 33.3833 5.02904 32.999C4.8094 32.6147 4.72257 32.1687 4.78198 31.73C4.91214 31.0026 5.11585 30.2903 5.38998 29.604L5.68998 28.693L2.65198 27.326C1.88703 29.8118 1.504 32.3993 1.51598 35C1.45148 38.4976 2.11334 41.9706 3.45971 45.1994C4.80609 48.4281 6.80769 51.3424 9.33798 53.758C11.055 55.5036 12.9983 57.011 15.116 58.24C15.2979 58.3358 15.4346 58.4998 15.496 58.696C15.5464 58.9011 15.5194 59.1176 15.42 59.304C15.365 59.4398 15.2705 59.5558 15.1487 59.6372C15.0269 59.7185 14.8834 59.7613 14.737 59.76C14.603 59.73 14.4747 59.6787 14.357 59.608C12.1212 58.2966 10.0554 56.7151 8.20598 54.899C5.56199 52.3108 3.47171 49.2121 2.06209 45.7912C0.652472 42.3703 -0.0470609 38.6986 0.00597934 34.999C-0.00507804 31.9604 0.454018 28.9383 1.36698 26.04C2.78977 21.9251 5.12663 18.1861 8.20198 15.104C11.1279 12.1641 14.6495 9.88496 18.53 8.42001L18.606 8.34401C21.617 7.33598 24.7717 6.82298 27.947 6.82501L23.163 2.04001C23.0887 1.97318 23.0298 1.89098 22.9904 1.79912C22.951 1.70725 22.9321 1.60792 22.935 1.50801C22.9288 1.28338 23.0106 1.06521 23.163 0.900012C23.315 0.900012 23.543 0.824012 23.771 0.824012C23.8709 0.821155 23.9702 0.840069 24.0621 0.87944C24.1539 0.91881 24.2361 0.977697 24.303 1.05201L30.379 7.12801C30.4982 7.23003 30.5726 7.37466 30.5865 7.53092C30.6003 7.68718 30.5524 7.84265 30.453 7.96401ZM38.579 21.102C38.6644 21.1453 38.737 21.2101 38.7897 21.2901C38.8423 21.3701 38.8731 21.4624 38.879 21.558C38.9294 21.7631 38.9024 21.9796 38.803 22.166C38.7395 22.2497 38.6595 22.3195 38.568 22.3711C38.4765 22.4227 38.3754 22.455 38.271 22.466L37.284 22.618H37.136C37.0486 22.6124 36.9632 22.5893 36.8849 22.5501C36.8066 22.511 36.7369 22.4565 36.68 22.39C36.5411 22.2995 36.4357 22.1661 36.38 22.01C36.3573 21.7958 36.4112 21.5804 36.532 21.402C36.5955 21.3183 36.6754 21.2485 36.7669 21.1969C36.8584 21.1453 36.9595 21.113 37.064 21.102L38.051 20.95C38.2333 20.9753 38.4111 21.0265 38.579 21.102ZM16.099 27.253C16.2475 27.3854 16.3755 27.5391 16.479 27.709C16.5255 27.9143 16.4986 28.1295 16.403 28.317C16.3072 28.499 16.1432 28.6356 15.947 28.697L14.58 29.077C14.4014 29.0844 14.2261 29.027 14.0866 28.9152C13.9471 28.8034 13.8527 28.6449 13.821 28.469C13.7744 28.2637 13.8013 28.0486 13.897 27.861C13.9928 27.6791 14.1567 27.5424 14.353 27.481L15.568 27.181C15.716 27.102 15.872 27.178 16.1 27.254L16.099 27.253ZM24.073 49.581C24.1688 49.3991 24.3327 49.2624 24.529 49.201C24.7245 49.125 24.9414 49.125 25.137 49.201C25.3189 49.2968 25.4556 49.4608 25.517 49.657C25.5937 49.8524 25.5937 50.0696 25.517 50.265L24.985 51.328C24.9139 51.4675 24.8051 51.5843 24.6709 51.6649C24.5367 51.7455 24.3825 51.7868 24.226 51.784L23.926 51.708C23.744 51.6122 23.6074 51.4483 23.546 51.252C23.4693 51.0566 23.4693 50.8394 23.546 50.644L24.073 49.581Z" fill="#FF974F"/>
<path d="M87.605 35.033C87.605 35.033 91.095 34.253 91.095 30.927C91.095 27.727 88.385 25.014 82.719 25.014H73.319C73.1993 25.0086 73.0799 25.0282 72.9683 25.0715C72.8566 25.1148 72.7552 25.1809 72.6706 25.2656C72.5859 25.3503 72.5198 25.4517 72.4765 25.5633C72.4331 25.6749 72.4136 25.7944 72.419 25.914V42.092C72.4136 42.2116 72.4331 42.3311 72.4765 42.4427C72.5198 42.5543 72.5859 42.6557 72.6706 42.7404C72.7552 42.8251 72.8566 42.8912 72.9683 42.9345C73.0799 42.9778 73.1993 42.9974 73.319 42.992H77.179C77.2986 42.9974 77.418 42.9778 77.5297 42.9345C77.6413 42.8912 77.7427 42.8251 77.8274 42.7404C77.912 42.6557 77.9781 42.5543 78.0215 42.4427C78.0648 42.3311 78.0844 42.2116 78.079 42.092V36.836H81.405C81.8745 36.7705 82.3526 36.8592 82.7673 37.0888C83.1821 37.3184 83.5111 37.6764 83.705 38.109L85.881 42.092C86.0287 42.4023 86.2719 42.657 86.5749 42.819C86.878 42.981 87.2249 43.0416 87.565 42.992H91.548C92.205 42.992 92.41 42.458 92.205 42.092L90.029 38.109C89.5103 36.9515 88.6691 35.9679 87.606 35.276V35.03L87.605 35.033ZM78.12 32.733V29.12H82.76C84.444 29.12 85.183 29.9 85.183 30.927C85.183 31.954 84.403 32.734 82.76 32.734L78.12 32.733Z" fill="#FF974F"/>
<path d="M112.118 25.914C112.12 25.7952 112.098 25.6773 112.054 25.5672C112.009 25.4571 111.943 25.3571 111.859 25.2731C111.775 25.1891 111.675 25.1229 111.565 25.0784C111.455 25.0339 111.337 25.012 111.218 25.014H95.526C95.4064 25.0086 95.2869 25.0282 95.1753 25.0715C95.0637 25.1148 94.9623 25.1809 94.8776 25.2656C94.7929 25.3503 94.7268 25.4517 94.6835 25.5633C94.6402 25.6749 94.6206 25.7944 94.626 25.914V42.092C94.6206 42.2116 94.6402 42.3311 94.6835 42.4427C94.7268 42.5543 94.7929 42.6557 94.8776 42.7404C94.9623 42.8251 95.0637 42.8912 95.1753 42.9345C95.2869 42.9778 95.4064 42.9974 95.526 42.992H111.211C111.331 42.9974 111.45 42.9778 111.562 42.9345C111.673 42.8912 111.775 42.8251 111.859 42.7404C111.944 42.6557 112.01 42.5543 112.053 42.4427C112.097 42.3311 112.116 42.2116 112.111 42.092V39.505C112.116 39.3854 112.097 39.2659 112.053 39.1543C112.01 39.0427 111.944 38.9413 111.859 38.8566C111.775 38.7719 111.673 38.7058 111.562 38.6625C111.45 38.6192 111.331 38.5996 111.211 38.605H100.289V36.014H108.378C108.498 36.0194 108.617 35.9998 108.729 35.9565C108.84 35.9132 108.942 35.8471 109.026 35.7624C109.111 35.6777 109.177 35.5763 109.22 35.4647C109.264 35.3531 109.283 35.2336 109.278 35.114V32.527C109.283 32.4074 109.264 32.2879 109.22 32.1763C109.177 32.0647 109.111 31.9633 109.026 31.8786C108.942 31.7939 108.84 31.7278 108.729 31.6845C108.617 31.6412 108.498 31.6216 108.378 31.627H100.289V29.327H111.211C111.331 29.3324 111.45 29.3128 111.562 29.2695C111.673 29.2262 111.775 29.1601 111.859 29.0754C111.944 28.9907 112.01 28.8893 112.053 28.7777C112.097 28.6661 112.116 28.5466 112.111 28.427L112.118 25.914Z" fill="#FF974F"/>
<path d="M131.129 39.55C131.134 39.4304 131.115 39.3109 131.071 39.1993C131.028 39.0877 130.962 38.9863 130.877 38.9016C130.793 38.8169 130.691 38.7508 130.58 38.7075C130.468 38.6642 130.349 38.6446 130.229 38.65H120.58V25.914C120.582 25.7952 120.56 25.6773 120.516 25.5672C120.471 25.4571 120.405 25.3571 120.321 25.2731C120.237 25.1891 120.137 25.1229 120.027 25.0784C119.917 25.0339 119.799 25.012 119.68 25.014H115.81C115.69 25.0086 115.571 25.0282 115.459 25.0715C115.348 25.1148 115.246 25.1809 115.162 25.2656C115.077 25.3503 115.011 25.4517 114.967 25.5633C114.924 25.6749 114.905 25.7944 114.91 25.914V42.092C114.905 42.2116 114.924 42.3311 114.967 42.4427C115.011 42.5543 115.077 42.6557 115.162 42.7404C115.246 42.8251 115.348 42.8912 115.459 42.9345C115.571 42.9778 115.69 42.9974 115.81 42.992H130.222C130.342 42.9974 130.461 42.9778 130.573 42.9345C130.684 42.8912 130.786 42.8251 130.87 42.7404C130.955 42.6557 131.021 42.5543 131.064 42.4427C131.108 42.3311 131.127 42.2116 131.122 42.092V39.546L131.129 39.55Z" fill="#FF974F"/>
<path d="M142.709 39.303C139.876 39.303 138.069 37.496 138.069 34.047C138.069 30.598 139.876 28.791 142.709 28.791C145.542 28.791 147.349 30.598 147.349 34.047C147.349 37.496 145.542 39.303 142.709 39.303ZM142.709 24.521C135.893 24.521 132.156 28.258 132.156 34.047C132.156 39.836 135.893 43.573 142.709 43.573C149.525 43.573 153.262 39.795 153.262 34.006C153.262 28.217 149.525 24.521 142.709 24.521Z" fill="#FF974F"/>
<path d="M166.114 24.521C159.298 24.521 155.561 28.258 155.561 34.047C155.561 39.836 159.298 43.573 166.114 43.573C172.273 43.573 175.64 40.247 175.64 37.167C175.655 37.0284 175.639 36.8881 175.593 36.7565C175.547 36.6249 175.472 36.5053 175.373 36.4067C175.275 36.3081 175.155 36.2329 175.023 36.1867C174.892 36.1406 174.752 36.1246 174.613 36.14H171.413C171.079 36.133 170.752 36.2274 170.473 36.4108C170.195 36.5942 169.978 36.8579 169.853 37.167C169.508 37.8532 168.972 38.4244 168.308 38.8108C167.644 39.1972 166.883 39.3821 166.116 39.343C163.283 39.343 161.476 37.536 161.476 34.087C161.476 30.638 163.283 28.831 166.116 28.831C166.82 28.7913 167.522 28.9513 168.139 29.2928C168.757 29.6343 169.265 30.1432 169.606 30.761C169.731 31.0701 169.948 31.3338 170.226 31.5172C170.505 31.7006 170.832 31.795 171.166 31.788H174.366C174.505 31.8034 174.645 31.7874 174.776 31.7413C174.908 31.6951 175.028 31.6199 175.126 31.5213C175.225 31.4227 175.3 31.3031 175.346 31.1715C175.392 31.0399 175.408 30.8996 175.393 30.761C175.352 27.721 172.15 24.521 166.114 24.521Z" fill="#FF974F"/>
<path d="M192.393 42.136C192.472 42.3839 192.625 42.6023 192.83 42.7627C193.035 42.9232 193.283 43.0184 193.543 43.036H197.895C198.429 43.036 198.757 42.666 198.552 42.136L191.366 25.917C191.28 25.6762 191.125 25.4659 190.921 25.3126C190.716 25.1593 190.471 25.0697 190.216 25.055H184.916C184.655 25.067 184.403 25.1601 184.197 25.3214C183.991 25.4827 183.84 25.7041 183.766 25.955L176.58 42.133C176.334 42.667 176.703 43.033 177.237 43.033H181.343C181.604 43.021 181.856 42.9279 182.062 42.7666C182.268 42.6053 182.418 42.3839 182.493 42.133L183.393 39.833H191.489L192.393 42.136ZM187.384 30.436H187.63L189.683 35.569H185.166L187.384 30.436Z" fill="#FF974F"/>
<path d="M215.716 35.033C215.716 35.033 219.206 34.253 219.206 30.927C219.206 27.727 216.496 25.014 210.871 25.014H201.464C201.344 25.0086 201.225 25.0282 201.113 25.0715C201.002 25.1148 200.9 25.1809 200.816 25.2656C200.731 25.3503 200.665 25.4517 200.621 25.5633C200.578 25.6749 200.559 25.7944 200.564 25.914V42.092C200.559 42.2116 200.578 42.3311 200.621 42.4427C200.665 42.5543 200.731 42.6557 200.816 42.7404C200.9 42.8251 201.002 42.8912 201.113 42.9345C201.225 42.9778 201.344 42.9974 201.464 42.992H205.324C205.444 42.9974 205.563 42.9778 205.675 42.9345C205.786 42.8912 205.888 42.8251 205.972 42.7404C206.057 42.6557 206.123 42.5543 206.166 42.4427C206.21 42.3311 206.229 42.2116 206.224 42.092V36.836H209.55C210.019 36.7764 210.495 36.8676 210.908 37.0965C211.322 37.3254 211.652 37.68 211.85 38.109L214.026 42.092C214.174 42.4023 214.417 42.657 214.72 42.819C215.023 42.981 215.37 43.0416 215.71 42.992H219.693C220.35 42.992 220.555 42.458 220.35 42.092L218.179 38.114C217.66 36.9565 216.819 35.9729 215.756 35.281V35.035L215.716 35.033ZM206.231 32.733V29.12H210.871C212.555 29.12 213.335 29.9 213.335 30.927C213.335 31.954 212.555 32.734 210.871 32.734L206.231 32.733Z" fill="#FF974F"/>
<path d="M239.449 25.914C239.451 25.7952 239.429 25.6773 239.385 25.5672C239.34 25.4571 239.274 25.3571 239.19 25.2731C239.106 25.1891 239.006 25.1229 238.896 25.0784C238.786 25.0339 238.668 25.012 238.549 25.014H222.121C222.001 25.0086 221.882 25.0282 221.77 25.0715C221.659 25.1148 221.557 25.1809 221.473 25.2656C221.388 25.3503 221.322 25.4517 221.278 25.5633C221.235 25.6749 221.216 25.7944 221.221 25.914V28.501C221.216 28.6206 221.235 28.7401 221.278 28.8517C221.322 28.9633 221.388 29.0647 221.473 29.1494C221.557 29.2341 221.659 29.3002 221.77 29.3435C221.882 29.3868 222.001 29.4064 222.121 29.401H227.541V42.13C227.536 42.2496 227.555 42.3691 227.598 42.4807C227.642 42.5923 227.708 42.6937 227.793 42.7784C227.877 42.8631 227.979 42.9292 228.09 42.9725C228.202 43.0158 228.321 43.0354 228.441 43.03H232.301C232.421 43.0354 232.54 43.0158 232.652 42.9725C232.763 42.9292 232.865 42.8631 232.949 42.7784C233.034 42.6937 233.1 42.5923 233.143 42.4807C233.187 42.3691 233.206 42.2496 233.201 42.13V29.408H238.58C238.7 29.4134 238.819 29.3938 238.931 29.3505C239.042 29.3072 239.144 29.2411 239.228 29.1564C239.313 29.0717 239.379 28.9703 239.422 28.8587C239.466 28.7471 239.485 28.6276 239.48 28.508V25.914H239.449Z" fill="#FF974F"/>
<path d="M254.19 42.136C254.269 42.3839 254.422 42.6023 254.627 42.7627C254.832 42.9232 255.08 43.0184 255.34 43.036H259.692C260.226 43.036 260.554 42.666 260.349 42.136L253.163 25.917C253.077 25.6762 252.922 25.4659 252.718 25.3126C252.513 25.1593 252.268 25.0697 252.013 25.055H246.757C246.496 25.067 246.244 25.1601 246.038 25.3214C245.832 25.4827 245.681 25.7041 245.607 25.955L238.422 42.136C238.176 42.67 238.545 43.036 239.079 43.036H243.185C243.446 43.024 243.698 42.9309 243.904 42.7696C244.11 42.6083 244.26 42.3869 244.335 42.136L245.235 39.836H253.324L254.19 42.136ZM249.181 30.436H249.427L251.48 35.569H247.004L249.181 30.436Z" fill="#FF974F"/>
</svg>
