<svg width="32" height="30" viewBox="0 0 32 30" fill="none" xmlns="http://www.w3.org/2000/svg">
<path d="M29.0421 1.421C28.7171 1.44232 28.398 1.51804 28.0981 1.645C27.8131 1.76 26.1571 2.466 23.7131 3.512C21.2691 4.558 18.0991 5.912 14.9491 7.266C8.65612 9.961 2.47212 12.615 2.47212 12.615L2.52012 12.595C2.25295 12.6905 1.99945 12.8206 1.76612 12.982C1.54496 13.1255 1.35542 13.3127 1.20912 13.532C1.01652 13.8171 0.93016 14.1607 0.965121 14.503C1.03787 14.8948 1.21806 15.2588 1.48557 15.5542C1.75308 15.8496 2.0974 16.0649 2.48012 16.176H2.48712L8.52912 18.246C8.68512 18.762 10.3621 24.362 10.7291 25.546C10.8481 26.0092 11.0515 26.4466 11.3291 26.836C11.4179 26.9546 11.5257 27.0576 11.6481 27.141C11.6944 27.1664 11.7422 27.1891 11.7911 27.209C11.7948 27.2086 11.7984 27.2091 11.8019 27.2103C11.8054 27.2115 11.8085 27.2134 11.8111 27.216L11.7971 27.209C11.8111 27.216 11.8171 27.223 11.8311 27.223C11.8451 27.223 11.8651 27.23 11.8921 27.237C12.1036 27.3051 12.3281 27.3224 12.5475 27.2877C12.7669 27.253 12.975 27.1671 13.1551 27.037L13.1821 27.017L16.8911 23.576L22.9191 28.276L22.9941 28.31C23.3971 28.5092 23.8472 28.5937 24.295 28.5542C24.7429 28.5147 25.1712 28.3527 25.5331 28.086C25.8545 27.8231 26.1062 27.4852 26.2661 27.102L26.2861 27.041L30.7121 3.968C30.8302 3.52181 30.8371 3.05347 30.7321 2.604C30.629 2.21162 30.382 1.87244 30.0401 1.654C29.7396 1.47491 29.3909 1.3935 29.0421 1.421ZM29.0761 2.799C29.1654 2.78772 29.256 2.79695 29.3411 2.826C29.3751 2.846 29.3891 2.84 29.4161 2.955C29.4568 3.19665 29.4452 3.44421 29.3821 3.681V3.688L24.9831 26.626C24.9097 26.7826 24.8032 26.9214 24.6711 27.033C24.4611 27.209 24.2231 27.345 23.5921 27.081L17.0031 21.942L16.8201 21.799L16.8131 21.806L14.8441 20.326L25.9131 7.3C25.9711 7.23228 26.0152 7.15379 26.0428 7.06901C26.0705 6.98424 26.0811 6.89484 26.0741 6.80594C26.0672 6.71705 26.0427 6.6304 26.0022 6.55096C25.9617 6.47152 25.906 6.40085 25.8381 6.343C25.7104 6.23683 25.5492 6.17911 25.3831 6.18C25.2542 6.18059 25.1285 6.22073 25.0231 6.295L8.99012 16.976L2.93512 14.906C2.93512 14.906 2.33512 14.573 2.30412 14.336C2.30412 14.322 2.29712 14.336 2.32412 14.288C2.38419 14.2116 2.45491 14.1443 2.53412 14.088C2.66593 14.0002 2.80713 13.9274 2.95512 13.871L2.97512 13.864L2.99512 13.857C2.99512 13.857 9.17912 11.203 15.4721 8.508C18.6221 7.157 21.7921 5.799 24.2361 4.754C26.6801 3.709 28.4361 2.962 28.5871 2.901C28.744 2.84244 28.9089 2.80805 29.0761 2.799ZM21.7311 10.11L13.3311 19.994L13.3241 20.001C13.3106 20.0153 13.2991 20.0315 13.2901 20.049C13.2779 20.0664 13.2665 20.0844 13.2561 20.103C13.2108 20.1827 13.1809 20.2702 13.1681 20.361V20.368L12.0751 25.29C12.0551 25.2462 12.039 25.2007 12.0271 25.154C11.6811 24.041 10.0921 18.754 9.87512 18.019L21.7311 10.11ZM14.2841 21.61L15.7911 22.744L13.5781 24.801L14.2841 21.61Z" fill="#FF974F" stroke="#FF974F"/>
</svg>
