<svg width="32" height="20" viewBox="0 0 32 20" fill="none" xmlns="http://www.w3.org/2000/svg">
<path d="M14.0482 0.764962C13.054 0.700508 12.0584 0.865431 11.1382 1.24697C10.7601 1.42705 10.4326 1.69816 10.1852 2.03597C10.0227 2.22114 9.91628 2.44863 9.87816 2.69196C9.82514 2.95915 9.87249 3.23651 10.0112 3.47097C10.1004 3.60933 10.2178 3.72738 10.3556 3.81748C10.4934 3.90758 10.6486 3.96771 10.8112 3.99397C11.0138 4.03624 11.2078 4.11231 11.3852 4.21897C11.4707 4.45109 11.5324 4.69133 11.5692 4.93597C11.5939 5.14008 11.6076 5.34538 11.6102 5.55097V5.63297C11.6102 5.63297 11.6712 6.52396 11.6312 7.43296C11.6128 7.76289 11.5751 8.09147 11.5182 8.41697C10.8754 7.64925 10.3122 6.81834 9.83716 5.93697C8.97616 4.43697 8.29015 3.10897 8.29015 3.10897C8.16718 2.76589 7.93721 2.47142 7.63416 2.26897C7.32034 2.03306 6.95498 1.87505 6.56815 1.80796C6.50213 1.79597 6.43525 1.7893 6.36816 1.78797H2.33116C2.15294 1.7837 1.97468 1.79406 1.79816 1.81896C1.57717 1.82837 1.36066 1.88438 1.16282 1.9833C0.964982 2.08222 0.790277 2.22182 0.650155 2.39297C0.509629 2.56162 0.409027 2.75984 0.355867 2.97283C0.302706 3.18582 0.298362 3.40806 0.343156 3.62296C0.368722 3.79259 0.416819 3.95806 0.486162 4.11497C0.486162 4.11762 0.487208 4.12016 0.489084 4.12203C0.490959 4.12391 0.493504 4.12496 0.496156 4.12496C0.496156 4.12496 3.79616 11.073 7.53616 15.161C10.2512 18.133 13.0282 18.184 15.3242 18.184H17.0352C17.4767 18.2159 17.918 18.1197 18.3062 17.907C18.5207 17.7595 18.6981 17.5642 18.8245 17.3366C18.9508 17.1089 19.0226 16.8551 19.0342 16.595C19.0214 16.2601 19.0737 15.9259 19.1882 15.611C19.2178 15.5204 19.2797 15.4438 19.3622 15.396C19.3722 15.406 19.3722 15.396 19.4132 15.427C19.6899 15.6469 19.9439 15.8942 20.1712 16.165C20.8259 17.007 21.5793 17.7674 22.4152 18.43C22.9456 18.8085 23.5554 19.0609 24.1982 19.168C24.4292 19.2095 24.6651 19.2163 24.8982 19.188L28.7202 19.208H28.7922C29.2661 19.1905 29.7279 19.0528 30.1342 18.808C30.5687 18.5529 30.8853 18.1368 31.0152 17.65C31.1242 17.061 30.9951 16.4528 30.6562 15.959C30.6063 15.8638 30.5516 15.7714 30.4922 15.682C30.3792 15.508 30.2262 15.262 30.0002 14.965C29.2809 14.0587 28.4893 13.2123 27.6332 12.434C27.217 12.0724 26.8267 11.6821 26.4652 11.266C26.3012 11.051 26.3522 11.166 26.3652 11.102C27.0407 10.0288 27.7751 8.99386 28.5652 8.00196C29.2696 7.1034 29.9131 6.15862 30.4912 5.17397C30.7169 4.86447 30.8775 4.51244 30.9635 4.13914C31.0494 3.76584 31.0588 3.379 30.9912 3.00196C30.8958 2.66028 30.6834 2.36297 30.3912 2.16196C30.1751 2.01668 29.9308 1.91886 29.6742 1.87496C29.2881 1.81287 28.8969 1.78877 28.5062 1.80297C27.7682 1.80297 24.4692 1.83396 24.1922 1.83396C23.8139 1.85132 23.4436 1.94917 23.1062 2.12096C22.772 2.3058 22.5062 2.59333 22.3482 2.94097L22.3172 3.00196C22.3172 3.00196 21.6412 4.50797 20.7592 5.99397C20.2562 6.94704 19.602 7.81226 18.8222 8.55596C18.8122 8.49496 18.8122 8.54597 18.8022 8.46397C18.7712 8.04397 18.8022 7.46396 18.8022 6.88596C18.8022 5.35896 18.9352 4.28597 18.8632 3.33997C18.8521 2.83814 18.7034 2.349 18.4332 1.92597C18.105 1.4858 17.6281 1.17982 17.0912 1.06496C16.4703 0.860645 15.8184 0.766896 15.1652 0.787972C14.7752 0.774972 14.4062 0.764962 14.0482 0.764962ZM15.1482 2.82497C15.6474 2.7847 16.1491 2.86174 16.6132 3.04997C16.8082 3.10097 16.7562 3.10097 16.7562 3.09097C16.804 3.21507 16.8284 3.34697 16.8282 3.47997C16.8692 4.07397 16.7672 5.24297 16.7672 6.87997C16.7672 7.33097 16.7162 7.96597 16.7672 8.62197C16.7605 9.0168 16.8491 9.40742 17.0257 9.76066C17.2022 10.1139 17.4614 10.4193 17.7812 10.651C17.9572 10.759 18.1538 10.8294 18.3585 10.8576C18.5631 10.8858 18.7714 10.8713 18.9702 10.815C19.3631 10.7037 19.7269 10.5078 20.0362 10.241C21.0534 9.3209 21.8998 8.22803 22.5362 7.01296C23.1311 5.99186 23.6738 4.94118 24.1622 3.86497L24.1722 3.85497H24.1922C24.5712 3.85497 27.8092 3.82397 28.5062 3.82397C28.6702 3.82397 28.7312 3.83396 28.8542 3.83396C28.8232 3.94696 28.8542 3.87497 28.7112 4.15197C28.1752 5.05266 27.583 5.91871 26.9382 6.74497C25.5142 8.65097 24.6222 9.39896 24.3662 10.67C24.3173 10.9885 24.3338 11.3136 24.4148 11.6255C24.4958 11.9374 24.6395 12.2295 24.8372 12.484C25.2627 13.0054 25.7361 13.4858 26.2512 13.919C27.0241 14.6195 27.7404 15.3802 28.3932 16.194C28.5288 16.3683 28.6553 16.5496 28.7722 16.737C28.8442 16.86 28.8232 16.837 28.9262 17.003C28.9872 17.103 28.9672 17.044 28.9772 17.075C28.8826 17.0941 28.7899 17.1215 28.7002 17.157L24.9292 17.137C24.8621 17.1388 24.7953 17.1455 24.7292 17.157C24.7292 17.157 24.7392 17.167 24.5342 17.137C24.1975 17.0751 23.879 16.9384 23.6022 16.737C22.9177 16.1517 22.2899 15.5031 21.7272 14.8C21.3991 14.4106 21.0277 14.06 20.6202 13.755C20.3772 13.5648 20.0935 13.4334 19.7913 13.3712C19.4891 13.3089 19.1765 13.3174 18.8782 13.396C18.5431 13.5078 18.2346 13.6875 17.9719 13.9237C17.7092 14.1599 17.4979 14.4476 17.3512 14.769C17.1837 15.2037 17.1002 15.6662 17.1052 16.132H15.3532C13.0272 16.132 11.3772 16.296 9.07216 13.775C5.98816 10.393 3.15916 4.76797 2.69816 3.83497H6.25416C6.32254 3.85792 6.38934 3.88532 6.45416 3.91697C6.32116 3.82497 6.46416 3.95797 6.46416 3.95797C6.47416 3.98897 6.49516 4.01897 6.50516 4.04997C6.50516 4.04997 7.21216 5.42296 8.10516 6.96996C8.68454 8.08014 9.39677 9.11574 10.2262 10.054C10.5101 10.3684 10.8649 10.6108 11.2612 10.761C11.4764 10.8303 11.7033 10.8561 11.9285 10.8367C12.1538 10.8173 12.373 10.7531 12.5732 10.648C12.8433 10.4916 13.0713 10.2717 13.2373 10.0074C13.4034 9.74304 13.5025 9.44223 13.5262 9.13097C13.6371 8.60121 13.7023 8.06289 13.7212 7.52197C13.7622 6.49697 13.7012 5.60597 13.7012 5.54397C13.7012 5.52397 13.7012 5.15497 13.6502 4.67297C13.6222 4.07108 13.4269 3.48893 13.0862 2.99197C13.0848 2.99197 13.0835 2.99171 13.0823 2.9912C13.0811 2.9907 13.08 2.98997 13.0791 2.98904C13.0782 2.98811 13.0774 2.98702 13.0769 2.9858C13.0764 2.98459 13.0762 2.98329 13.0762 2.98197C13.7593 2.86738 14.4515 2.81484 15.1442 2.82497H15.1482Z" fill="#FF974F"/>
</svg>
