<svg width="32" height="32" viewBox="0 0 32 32" fill="none" xmlns="http://www.w3.org/2000/svg">
<path d="M15.7422 0.861014C13.1022 0.850776 10.5059 1.53432 8.21318 2.8432C5.9205 4.15207 4.01194 6.04034 2.67863 8.3189C1.34532 10.5975 0.634057 13.1863 0.616072 15.8263C0.598088 18.4662 1.27401 21.0645 2.57616 23.361L0.642155 30.28C0.595087 30.4475 0.616477 30.6268 0.701617 30.7785C0.786757 30.9303 0.928676 31.0419 1.09616 31.089C1.20526 31.1208 1.32082 31.1232 1.43116 31.096L8.64616 29.307C10.6729 30.3873 12.9193 30.9914 15.2146 31.0734C17.5098 31.1554 19.7936 30.7131 21.8923 29.7801C23.9909 28.8471 25.8493 27.448 27.3263 25.6891C28.8032 23.9303 29.8597 21.8579 30.4156 19.6294C30.9715 17.401 31.0121 15.0752 30.5344 12.8287C30.0566 10.5822 29.0731 8.47421 27.6585 6.66484C26.2439 4.85546 24.4354 3.39235 22.3706 2.38667C20.3058 1.381 18.0389 0.85923 15.7422 0.861014ZM15.7422 2.17601C17.8527 2.17533 19.9354 2.65837 21.8302 3.58804C23.7249 4.5177 25.3814 5.86927 26.6725 7.53893C27.9635 9.20858 28.8547 11.1519 29.2776 13.2197C29.7005 15.2874 29.6438 17.4246 29.112 19.4671C28.5802 21.5096 27.5873 23.403 26.2097 25.0019C24.8321 26.6008 23.1063 27.8628 21.1649 28.6908C19.2236 29.5188 17.1183 29.8909 15.0107 29.7784C12.9031 29.6659 10.8494 29.0719 9.00716 28.042C8.86084 27.9614 8.68981 27.9379 8.52716 27.976L2.20716 29.541L3.90716 23.504C3.93075 23.4184 3.93707 23.329 3.92574 23.2409C3.91441 23.1528 3.88565 23.0679 3.84116 22.991C2.60726 20.8934 1.94949 18.507 1.93443 16.0735C1.91938 13.6399 2.54757 11.2456 3.75541 9.13286C4.96326 7.02015 6.70787 5.26407 8.81262 4.04242C10.9174 2.82076 13.3085 2.1769 15.7422 2.17601ZM10.2422 8.09501C9.95512 8.09992 9.67216 8.16379 9.41085 8.28266C9.14954 8.40153 8.91546 8.57286 8.72316 8.78601C8.2395 9.26191 7.85505 9.82903 7.59208 10.4545C7.3291 11.08 7.19284 11.7515 7.19116 12.43C7.29995 14.0257 7.8997 15.5486 8.90816 16.79C8.88816 16.764 9.14516 17.132 9.48016 17.573C9.91759 18.1433 10.3849 18.6901 10.8802 19.211C12.2652 20.7223 13.9406 21.9392 15.8062 22.789C16.5493 23.1062 17.3091 23.3829 18.0822 23.618C18.971 23.8838 19.9085 23.9447 20.8242 23.796C21.4404 23.6777 22.0265 23.4362 22.5472 23.086C23.1801 22.747 23.6806 22.2049 23.9682 21.547C24.1295 21.1107 24.2334 20.6552 24.2772 20.192C24.2958 20.0193 24.2981 19.8452 24.2842 19.672C24.2883 19.4882 24.2378 19.3072 24.1392 19.152C23.8302 18.652 23.4882 18.639 23.1262 18.452C22.9262 18.352 22.3502 18.071 21.7782 17.801C21.2062 17.531 20.7062 17.288 20.4032 17.176C20.163 17.0649 19.8976 17.0194 19.6342 17.044C19.457 17.0746 19.288 17.1411 19.1375 17.2395C18.987 17.3379 18.8582 17.466 18.7592 17.616C18.5752 17.892 17.8252 18.774 17.6012 19.03C17.6012 19.03 17.6212 19.037 17.5292 18.991C17.2462 18.853 16.9042 18.735 16.3912 18.465C15.7284 18.1129 15.1103 17.6824 14.5502 17.183C13.7693 16.4696 13.0978 15.6451 12.5572 14.736C12.5702 14.716 12.5572 14.743 12.5902 14.71C12.8272 14.48 13.0312 14.204 13.2082 14C13.4035 13.7649 13.565 13.5037 13.6882 13.224C13.7779 13.0245 13.8215 12.8074 13.8158 12.5887C13.8101 12.3701 13.7552 12.1555 13.6552 11.961C13.6622 11.981 13.5832 11.797 13.4912 11.58C13.3992 11.363 13.2912 11.087 13.1622 10.791C12.9192 10.199 12.6422 9.53501 12.4782 9.14701C12.341 8.74146 12.0551 8.40303 11.6782 8.20002C11.475 8.10527 11.2503 8.06659 11.0272 8.08801C10.7772 8.09501 10.5162 8.09501 10.2442 8.09501H10.2422ZM10.2422 9.41001C10.4982 9.41001 10.7482 9.41002 10.9522 9.42301C11.1562 9.43601 11.1522 9.43602 11.1102 9.41601C11.0682 9.39601 11.1232 9.39002 11.2482 9.67902C11.4062 10.06 11.6822 10.725 11.9322 11.317C12.0572 11.617 12.1692 11.889 12.2612 12.117C12.3532 12.345 12.4062 12.459 12.4612 12.571C12.5202 12.683 12.5142 12.61 12.4942 12.65C12.4195 12.8325 12.3184 13.0029 12.1942 13.156C11.9772 13.399 11.7602 13.676 11.6482 13.787C11.4731 13.9386 11.3376 14.1304 11.2532 14.346C11.2008 14.5162 11.1849 14.6955 11.2065 14.8723C11.228 15.0491 11.2865 15.2193 11.3782 15.372C11.9952 16.4202 12.7669 17.3692 13.6672 18.187C14.3078 18.7539 15.0126 19.2439 15.7672 19.647C16.3462 19.956 16.8262 20.134 16.9312 20.186C17.1886 20.3319 17.4844 20.3961 17.7792 20.37C18.0808 20.321 18.3555 20.1674 18.5552 19.936C18.7922 19.673 19.4892 18.871 19.8242 18.384C19.8372 18.391 19.8312 18.384 19.9422 18.423C19.9952 18.443 20.6262 18.723 21.1982 18.995C21.7702 19.267 22.3422 19.547 22.5272 19.64C22.7972 19.772 22.9222 19.864 22.9542 19.864C22.9579 19.9364 22.9556 20.009 22.9472 20.081C22.9113 20.4293 22.8317 20.7717 22.7102 21.1C22.493 21.4622 22.1875 21.7633 21.8222 21.975C21.4487 22.2157 21.0372 22.3915 20.6052 22.495C19.8877 22.6205 19.1508 22.5753 18.4542 22.363C17.8952 22.185 17.2042 21.963 16.3032 21.58C14.6048 20.8008 13.0798 19.6893 11.8182 18.311C11.3536 17.821 10.9147 17.3073 10.5032 16.772C10.1872 16.364 10.0492 16.147 9.93716 15.996C9.13305 14.9623 8.63021 13.7265 8.48416 12.425C8.46305 11.9074 8.55849 11.3916 8.76342 10.9158C8.96835 10.44 9.27754 10.0163 9.66816 9.67601C9.81916 9.51721 10.0253 9.42236 10.2442 9.41101L10.2422 9.41001Z" fill="#FF974F" stroke="#FF974F"/>
</svg>
